<svg width="121" height="86" viewBox="0 0 121 86" fill="none" xmlns="http://www.w3.org/2000/svg">
<g id="Group">
<path id="Vector" d="M114.282 0.182368C113.268 0.46385 112.156 1.23792 111.523 2.09644C109.299 5.12237 110.819 9.41496 114.422 10.3298C116.801 10.935 119.25 9.76681 120.404 7.48681C120.784 6.72681 120.826 6.52978 120.826 5.24904C120.826 3.96829 120.784 3.77126 120.404 3.01126C119.236 0.703109 116.674 -0.479113 114.282 0.182368ZM117.209 1.60385C120.235 3.10978 120.207 7.51496 117.167 8.92237C114.746 10.0624 111.889 8.07792 111.889 5.24904C111.889 2.392 114.802 0.407553 117.209 1.60385Z" fill="black"/>
<path id="Vector_2" d="M113.719 5.24902V7.99347H114.422H115.126V6.93791C115.126 6.36088 115.168 5.88236 115.239 5.88236C115.295 5.88236 115.633 6.36088 115.97 6.93791L116.59 7.99347H117.336H118.081L117.378 6.86754L116.674 5.74162L117.026 5.65717C117.941 5.43199 118.264 4.03865 117.575 3.22236C117.124 2.67347 116.491 2.50458 114.957 2.50458H113.719V5.24902ZM116.449 3.94014C116.702 4.34828 116.393 4.68606 115.703 4.72828L115.126 4.77051V4.19347V3.61643L115.703 3.65865C116.083 3.6868 116.35 3.78532 116.449 3.94014Z" fill="black"/>
<path id="Vector_3" d="M14.4963 10.3438C13.4548 10.4423 11.1467 10.9912 10.0911 11.3853C4.48963 13.426 1.23852 18.5912 1.9563 24.2912C2.3363 27.2327 3.67333 29.2875 6.36148 31.0327C7.75482 31.9335 9.24667 32.5527 12.6948 33.6646C15.9881 34.7201 17.0859 35.1705 18.2822 36.0009C19.3519 36.7186 19.8444 37.5068 19.943 38.6749C20.1259 40.7157 18.6481 42.2497 15.9741 42.8268C13.0044 43.446 9.75333 42.5031 7.58593 40.3779L6.62889 39.4209L4.18 42.109C2.84296 43.5868 1.50593 45.0646 1.21037 45.4023C0.76 45.8949 0.703704 46.0357 0.844445 46.2046C0.999259 46.3875 0.942963 46.4157 0.506667 46.4157H0V50.2157V54.0157H5.48889H10.9778V69.5675V85.1194H15.2704H19.563V69.5675V54.0157H25.0519H30.5407V50.2157V46.4157H28.0778H25.6148L26.2481 45.5431C27.8244 43.4179 28.4719 41.2364 28.4719 38.1823C28.4578 34.8186 27.8104 33.1297 25.7556 31.0749C24.7563 30.0616 24.3059 29.752 23.0111 29.0764C22.1244 28.626 20.6607 28.0349 19.563 27.6972C15.777 26.5149 14.5526 26.1068 13.5815 25.6564C11.4563 24.6712 10.7948 23.8409 10.7807 22.1238C10.7667 21.2512 10.823 21.0401 11.1889 20.4349C12.0756 18.9994 13.9756 18.1972 16.4667 18.2112C18.7748 18.2112 20.5904 18.8305 21.9415 20.0409L22.6452 20.6742L25.5022 17.5497C27.0785 15.8327 28.3733 14.3831 28.4015 14.3268C28.4859 14.1157 26.5015 12.7505 25.1081 12.0609C22.2933 10.6675 18.0148 9.97789 14.4963 10.3438Z" fill="black"/>
<path id="Vector_4" d="M35.0444 28.8231C35.0444 40.4623 35.0022 46.4157 34.9037 46.4157C34.8052 46.4157 34.7629 52.9601 34.7629 65.7675V85.1194L39.0274 85.0912L43.2778 85.049L43.3059 77.5898C43.3341 73.4801 43.3481 70.0179 43.3481 69.8772C43.3481 69.6661 43.5452 69.6379 45.4311 69.6379L47.5 69.652L51.5111 77.3786L55.5222 85.1053L60.6311 85.1194C63.4459 85.1194 65.7118 85.0772 65.6837 85.0068C65.6555 84.9505 63.5022 81.3616 60.8985 77.0127C58.2948 72.6779 56.1555 69.0468 56.1274 68.9483C56.0992 68.8357 56.3526 68.6949 56.817 68.5683C60.4622 67.6112 62.9252 65.1342 63.9244 61.4046C64.3607 59.786 64.3466 56.2816 63.9104 54.649C63.5444 53.2698 62.9392 52.0031 62.1792 51.032C61.8555 50.6238 61.5459 50.2016 61.4615 50.1031C61.3629 49.9764 62.2215 49.9342 65.7118 49.9342H70.0889V67.5268V85.1194H77.8296C82.3192 85.1194 86.1615 85.0631 86.9496 84.9646C94.8592 84.1061 101.207 80.0246 104.064 73.9446C105.19 71.5661 105.556 69.849 105.654 66.5416C105.781 62.4179 105.274 59.7298 103.796 56.732C100.967 50.9898 95.7318 47.7527 87.5407 46.6831C86.8089 46.5986 85.0355 46.472 83.6 46.4298L80.9822 46.3453L81.897 44.0512L82.7978 41.7712H90.2852H97.7867L98.2652 42.9253C98.5326 43.5727 99.2785 45.4023 99.94 47.0068L101.122 49.9342H105.936H110.749L110.369 49.0475C110.158 48.5549 106.386 39.8572 101.967 29.6957L93.9444 11.2305H90.4118H86.8792L79.2933 28.8231L71.7074 46.4157H70.9052H70.1029L70.0607 47.4994L70.0185 48.5831L61.3629 38.9846C56.6059 33.6927 52.6933 29.3298 52.6652 29.2594C52.6511 29.2031 56.3244 25.2905 60.8281 20.5616C65.3459 15.8468 69.1881 11.8075 69.3711 11.6105L69.7089 11.2305H64.1637H58.6044L51.1592 19.2105L43.7 27.1905L43.6578 19.2105L43.6296 11.2305H39.337H35.0444V28.8231ZM92.523 28.5838C93.8037 31.8209 94.8592 34.4949 94.8592 34.5372C94.8592 34.5653 92.7481 34.5935 90.1585 34.5935H85.4718L87.8081 28.626C89.0889 25.3327 90.1585 22.6586 90.1726 22.6727C90.1867 22.7009 91.2422 25.3468 92.523 28.5838ZM57.1407 47.4431C57.1407 47.4853 56.7748 47.4009 56.3385 47.2601C54.3681 46.6549 53.017 46.5142 48.2459 46.4579L43.6296 46.3875V38.9986V31.6098L50.3852 39.4912C54.1007 43.8401 57.1407 47.4149 57.1407 47.4431ZM51.9755 53.9312C53.5518 54.3675 54.4666 55.029 55.0718 56.1831C55.3252 56.6616 55.3674 56.9994 55.3815 58.0972C55.3815 59.6453 55.1704 60.2223 54.2837 61.0809C53.1437 62.1786 51.3281 62.5023 46.4444 62.432C43.5311 62.3898 43.2778 62.3757 43.2918 62.1364C43.3059 62.0098 43.32 60.0253 43.3341 57.7312L43.3481 53.5653L47.2607 53.6357C50.2866 53.6779 51.3422 53.7483 51.9755 53.9312ZM86.3444 54.5083C89.7222 55.0149 92.157 56.1268 93.9726 57.9846C95.4363 59.4905 96.3511 61.2638 96.703 63.2201C96.9563 64.6838 96.7874 68.0194 96.4074 69.3564C95.3941 72.8749 92.8326 75.4083 89.2296 76.4357C87.3718 76.9705 85.9363 77.1253 82.3052 77.1957L78.6741 77.2661L78.6459 66.1053C78.6178 59.9549 78.6178 54.7898 78.6459 54.6068L78.6881 54.2972H81.8126C83.8674 54.2972 85.4155 54.3675 86.3444 54.5083Z" fill="black"/>
<path id="Vector_5" d="M114.352 75.5912C112.874 76.0838 111.734 77.069 111.143 78.3357C110.693 79.2927 110.693 81.5164 111.143 82.4735C111.593 83.4727 112.593 84.4579 113.62 84.9224C114.38 85.2742 114.661 85.3305 115.759 85.3305C116.843 85.3305 117.139 85.2742 117.828 84.9505C118.94 84.4298 119.799 83.5994 120.277 82.5438C120.629 81.7838 120.685 81.5024 120.685 80.4046C120.685 79.3068 120.629 79.0253 120.277 78.2653C119.503 76.5764 117.899 75.5349 115.97 75.4505C115.351 75.4224 114.69 75.4927 114.352 75.5912Z" fill="black"/>
</g>
</svg>
